# xmcd CD database file
#
# Track frame offsets:
#	150
#	10880
#	22512
#	35762
#	56542
#	69085
#	84597
#	94157
#	105222
#	120710
#
# Disc length: 1850 seconds
#
# Revision: 0
# Processed by: cddbd v1.5PL3 Copyright (c) Steve Scherf et al.
# Submitted via: CDex 1.50
#
DISCID=6a07380a
DTITLE=GOGGLE A - デンデケ ロックコンボ
DYEAR=2003
DGENRE=Rock
TTITLE0=ライド･オン･ヤマハ RIDE ON YAMAHA
TTITLE1=GO!GO! レンタカー GO!GO! RENT-A-CAR
TTITLE2=熟れたビワ RIPE LOQUAT
TTITLE3=アン･アン･アン ANN ANN ANN
TTITLE4=第7 ピカソ会館 PICASSO HALL NO.7
TTITLE5=チャールストンのプードル娘 CHARLESTON POODLE GIRL
TTITLE6=のっぽのサリー LONG TALL SALLY
TTITLE7=リバーブ･チェイス REVERB CHASE
TTITLE8=俺たちゃバイク乗り(ゴーゴー) MOTO-ELEKI(GO-GO)
TTITLE9=秘密のトマト SECRETOMATO
EXTD=YEAR: 2003
EXTT0=
EXTT1=
EXTT2=
EXTT3=
EXTT4=
EXTT5=
EXTT6=
EXTT7=
EXTT8=
EXTT9=
PLAYORDER=
